<?xml version="1.0" encoding="UTF-8" standalone="no"?>
<!-- Created with Inkscape (http://www.inkscape.org/) -->

<svg
   version="1.1"
   id="svg2"
   width="1864.9658"
   height="1129.7725"
   viewBox="0 0 1864.9658 1129.7725"
   sodipodi:docname="20250709_1631_Language Learning Icons_simple_compose_01jzqsfp82e7v9bw63kq2x00j5.png"
   xml:space="preserve"
   xmlns:inkscape="http://www.inkscape.org/namespaces/inkscape"
   xmlns:sodipodi="http://sodipodi.sourceforge.net/DTD/sodipodi-0.dtd"
   xmlns="http://www.w3.org/2000/svg"
   xmlns:svg="http://www.w3.org/2000/svg"><defs
     id="defs6" /><sodipodi:namedview
     id="namedview4"
     pagecolor="#ffffff"
     bordercolor="#cccccc"
     borderopacity="1"
     inkscape:showpageshadow="0"
     inkscape:pageopacity="1"
     inkscape:pagecheckerboard="0"
     inkscape:deskcolor="#d1d1d1"
     showgrid="false" /><g
     inkscape:groupmode="layer"
     inkscape:label="Image"
     id="g8"
     transform="translate(-1833.3943,-182.45512)"><path
       style="fill:#35c786;fill-opacity:1;stroke-width:1.15662"
       d="m 3567.8028,1310.8849 c -5.413,-1.6974 -14.2232,-9.6381 -16.7624,-15.1081 -1.9788,-4.2628 -2.1449,-8.6107 -2.1449,-56.1081 0,-57.0897 -0.081,-56.4312 7.8743,-64.2158 8.2464,-8.0699 6.5156,-7.8663 66.9033,-7.8663 h 54.3678 l 5.6031,3.2229 c 7.147,4.1112 12.0375,10.7324 13.6939,18.54 0.8756,4.1275 1.1853,21.8866 0.9421,54.0114 l -0.3627,47.8621 -2.9867,5.6767 c -3.3624,6.3904 -10.7028,12.458 -17.2114,14.2269 -5.9192,1.6087 -104.708,1.3915 -109.9164,-0.2417 z m 110.8624,-15.1524 c 5.6454,-4.9279 5.8063,-6.5085 5.8063,-57.002 v -47.3502 l -2.6657,-3.871 c -4.7014,-6.8271 -3.8565,-6.7297 -58.483,-6.7481 -53.8023,-0.019 -54.3933,0.042 -58.6235,5.952 -2.6995,3.7716 -2.7509,99.9431 -0.057,105.0425 3.6247,6.8592 3.1596,6.8085 59.7853,6.5242 49.7644,-0.2497 51.7094,-0.3411 54.237,-2.5474 z m -94.6864,-12.5165 c -0.7682,-0.906 -1.2273,-3.0819 -1.02,-4.8356 0.3305,-2.7975 1.8515,-3.9022 12.4045,-9.0105 6.6151,-3.2022 13.144,-6.9147 14.5086,-8.2501 l 2.4812,-2.428 -3.8429,-4.283 c -2.1136,-2.3557 -5.3538,-7.4083 -7.2004,-11.2278 -5.3471,-11.0607 -4.0849,-16.0664 3.8623,-15.318 3.3647,0.3168 4.2219,1.1064 6.6056,6.0848 1.5066,3.1465 4.336,8.1785 6.2876,11.1824 3.0312,4.6656 3.8118,5.2493 5.3562,4.0046 4.6229,-3.7258 14.282,-22.5377 14.282,-27.8156 0,-1.4183 -3.9737,-1.6733 -26.0733,-1.6733 -18.7202,0 -26.4688,-0.3872 -27.4763,-1.373 -2.0457,-2.002 -1.7153,-8.3904 0.5285,-10.2146 1.3644,-1.1093 6.0835,-1.6348 16.0765,-1.7901 l 14.1451,-0.2198 0.7576,-5.8538 c 1.8508,-14.3024 14.3625,-13.7802 13.5754,0.5667 l -0.3025,5.5138 15.8968,0.1064 c 17.1961,0.1152 19.7638,0.9003 19.7638,6.0426 0,5.4625 -1.9513,7.2217 -8.011,7.2217 h -5.5904 l -1.5008,7.3892 c -1.9267,9.4854 -7.152,20.2899 -13.2405,27.3773 -4.6254,5.3845 -4.7194,5.6512 -2.5525,7.2423 4.2241,3.1014 12.8642,6.9859 19.8378,8.9189 3.8309,1.0618 7.6229,2.7503 8.4267,3.752 2.0481,2.5525 1.8188,6.5918 -0.5031,8.8639 -4.4928,4.3967 -22.0798,-0.7711 -34.5769,-10.1601 l -5.5575,-4.1754 -5.7252,4.0252 c -14.4774,10.1781 -28.0068,14.6006 -31.6229,10.3368 z m -686.0651,-36.1722 c -7.5053,-1.4495 -14.679,-4.9258 -20.1543,-9.7664 -5.2038,-4.6005 -11.7,-14.5332 -11.7185,-17.9175 -0.012,-1.8888 -4.8745,-2.0024 -85.6872,-2.0024 -75.6514,0 -85.9803,-0.2083 -88.2748,-1.7811 l -2.5987,-1.7811 V 1074.3172 934.8391 l 2.5589,-2.33289 c 2.2148,-2.01908 4.102,-2.33289 14.0305,-2.33289 h 11.4715 v -14.14771 c 0,-12.58037 0.2686,-14.48168 2.4233,-17.16239 l 2.4233,-3.01471 76.7902,0.0136 c 80.4236,0.0142 82.6174,0.1352 92.5744,5.10495 6.961,3.47441 15.3286,9.94945 18.6424,14.42606 l 3.1659,4.27681 5.0525,-5.73992 c 6.1345,-6.96916 14.8312,-12.57802 24.3876,-15.72837 6.9172,-2.28037 9.5234,-2.35315 84.2573,-2.35315 h 77.1195 l 2.4233,3.01471 c 2.1547,2.68071 2.4232,4.58202 2.4232,17.16239 v 14.14771 h 11.7452 c 10.9112,0 11.9488,0.1994 14.615,2.8084 l 2.8698,2.80838 v 137.97522 137.9755 l -2.8698,2.8083 -2.8698,2.8083 h -85.1306 -85.1305 l -2.1447,5.9095 c -4.0451,11.1452 -17.2235,21.2557 -31.0499,23.8217 -7.2969,1.3542 -24.227,1.3299 -31.345,-0.044 z m 35.9299,-15.8458 c 2.8938,-1.4613 6.4965,-3.7574 8.006,-5.1024 3.7381,-3.3305 7.1936,-10.2142 7.1936,-14.3302 0,-2.3049 0.9893,-4.1565 3.0808,-5.7664 3.0522,-2.3493 3.8633,-2.3714 87.6902,-2.3714 h 84.6093 V 1073.7654 943.90324 h -7.5997 -7.5998 V 1063.52 1183.1368 l -2.8699,2.8084 c -2.5872,2.5318 -3.828,2.8083 -12.601,2.8083 -11.3542,0 -14.9284,-1.6435 -14.9284,-6.8649 0,-4.4586 3.7798,-6.865 10.7831,-6.865 h 5.5857 V 1042.2681 909.51244 l -73.3675,0.31904 c -72.3769,0.31473 -73.4411,0.3524 -78.8341,2.79144 -7.3252,3.31286 -15.034,10.45636 -18.548,17.18797 l -2.877,5.51115 -0.5846,111.36216 c -0.5698,108.5695 -0.6413,111.4028 -2.8541,112.9859 -3.1047,2.2211 -6.9237,2.0372 -9.2183,-0.444 -1.7376,-1.8788 -1.9409,-12.1435 -2.2274,-112.4137 -0.3145,-110.16712 -0.3192,-110.35484 -2.8279,-115.6656 -3.2048,-6.78414 -10.3211,-13.74808 -18.2006,-17.81078 l -6.1783,-3.18551 -73.9521,-0.3188 -73.952,-0.31878 v 132.75537 132.7553 h 72.433 c 48.557,0 74.4754,0.4186 78.6289,1.2696 8.94,1.8319 21.3376,8.5345 26.5934,14.3776 l 4.5088,5.0125 2.537,-4.0173 c 1.3955,-2.2094 4.7292,-5.8532 7.4083,-8.0975 5.2175,-4.3703 9.2305,-4.6419 12.2087,-0.8264 2.5031,3.2065 1.6412,5.9201 -3.6508,11.4951 -6.0696,6.3941 -9.6312,12.9171 -11.36,20.8061 -1.3951,6.3656 -4.1095,8.6843 -8.8142,7.5287 -3.0177,-0.7411 -4.2801,-2.8605 -6.2386,-10.4728 -1.5753,-6.1234 -7.081,-13.4552 -12.7191,-16.9382 -10.3637,-6.4023 -10.4394,-6.4075 -93.4024,-6.4075 h -76.4237 l -2.8698,-2.8083 -2.87,-2.8084 V 1063.52 943.90324 h -7.5998 -7.5998 v 129.86216 129.8622 h 83.5218 c 54.958,0 84.615,0.4067 86.7181,1.1891 3.9468,1.4685 6.2236,4.2763 6.2725,7.735 0.081,5.7024 6.8389,14.8498 13.4755,18.2393 6.318,3.2268 9.2041,3.6515 22.8069,3.356 11.4124,-0.2476 14.2417,-0.6937 18.7073,-2.949 z m 13.9405,-56.0864 c -2.1237,-2.0782 -3.4177,-4.5381 -3.4177,-6.4973 0,-2.468 29.81,-85.7892 43.2376,-120.8524 3.4922,-9.1191 6.5329,-11.1817 16.4843,-11.1817 6.6139,0 8.4546,0.4358 10.8743,2.5744 2.2108,1.9538 8.4268,17.5456 25.7877,64.6831 12.5811,34.16 22.8748,63.1554 22.8748,64.4343 0,3.5988 -2.0691,6.5566 -5.966,8.5286 -6.8094,3.4459 -13.3923,-0.2839 -16.2625,-9.214 -0.8091,-2.5172 -3.0283,-8.8244 -4.9315,-14.0159 l -3.4604,-9.4394 h -29.0355 -29.0356 l -2.2466,6.0069 c -1.2358,3.3038 -3.7204,10.0207 -5.5216,14.9267 -2.0039,5.4578 -4.4023,9.7875 -6.1793,11.1555 -4.2524,3.2733 -9.1439,2.8625 -13.202,-1.1088 z m 77.0625,-52.5524 c -0.2144,-0.5375 -4.862,-13.6602 -10.328,-29.1618 -5.4661,-15.5014 -10.2097,-28.1909 -10.5413,-28.1989 -0.6002,-0.013 -21.0377,55.844 -21.0308,57.4798 0,0.472 9.518,0.8581 21.1467,0.8581 11.6287,0 20.9677,-0.4398 20.7534,-0.9772 z m -265.2141,-79.114 c -2.9181,-2.8556 -3.0063,-7.0629 -0.2003,-9.548 1.9265,-1.7061 7.6395,-1.8936 57.6944,-1.8936 52.337,0 55.6682,0.1212 57.4912,2.0924 2.6018,2.8134 2.4397,6.5668 -0.4036,9.3492 -2.2719,2.2235 -3.8972,2.2883 -57.2909,2.2883 -53.3935,0 -55.0188,-0.065 -57.2908,-2.2883 z m 0,-38.9015 c -1.2861,-1.2586 -2.3385,-3.3181 -2.3385,-4.57662 0,-1.25856 1.0524,-3.31806 2.3385,-4.57663 2.2725,-2.22386 3.8973,-2.28836 57.6943,-2.28836 52.1429,0 55.4682,0.12146 57.291,2.09237 2.7618,2.98644 2.4425,7.72744 -0.6637,9.85654 -2.2619,1.5503 -9.6823,1.7811 -57.2909,1.7811 -53.1334,0 -54.759,-0.065 -57.0307,-2.2884 z m 193.6842,0.196 c -2.5556,-2.7634 -2.4591,-7.3863 0.2032,-9.74403 1.9258,-1.70565 7.6115,-1.89358 57.2909,-1.89358 53.5938,0 55.2189,0.0641 57.4911,2.28836 1.2861,1.25857 2.3384,3.31807 2.3384,4.57663 0,1.25852 -1.0523,3.31802 -2.3384,4.57662 -2.2725,2.224 -3.8973,2.2884 -57.6944,2.2884 -52.143,0 -55.4681,-0.1215 -57.2908,-2.0924 z M 2759.229,965.83824 c -2.8105,-3.0392 -2.3758,-6.55548 1.1458,-9.2662 3.0125,-2.31889 4.2396,-2.37136 55.4609,-2.37136 51.5776,0 57.583,0.38063 59.7985,3.7901 1.5484,2.38321 0.9862,6.09273 -1.2196,8.04625 -1.9265,1.70607 -7.6395,1.89358 -57.6944,1.89358 -52.337,0 -55.6682,-0.12124 -57.4912,-2.09237 z m 194.0877,0 c -3.7322,-4.03573 -1.5489,-9.69493 4.2851,-11.10687 1.4019,-0.33929 26.302,-0.46878 55.3335,-0.28774 50.0057,0.3118 52.9142,0.44389 55.2448,2.50874 2.9278,2.59389 3.1093,4.9856 0.64,8.43533 l -1.82,2.54291 h -55.8742 c -52.6451,0 -55.9859,-0.12093 -57.8092,-2.09237 z m 469.9217,276.03706 c -1.3343,-1.3057 -1.831,-4.0468 -1.8141,-10.0113 0.069,-24.2808 6.7869,-39.7078 20.4377,-46.9292 4.4509,-2.3546 5.9032,-2.4573 30.0439,-2.1268 20.8914,0.2862 25.9718,0.041 28.796,-1.3879 4.5808,-2.318 5.0758,-3.9719 4.9968,-16.6939 -0.062,-10.002 0.7279,-15.9901 2.7334,-20.7155 0.5897,-1.3895 -1.158,-2.9634 -7.1753,-6.4616 -10.8519,-6.309 -12.6267,-8.4393 -12.6267,-15.1569 0,-8.472 2.8638,-10.5992 20.7534,-15.4162 l 6.7229,-1.8101 v -9.6754 c 0,-8.9411 0.2444,-9.9428 3.2189,-13.2006 3.0882,-3.3824 3.6931,-3.5518 14.9074,-4.1751 6.4285,-0.3572 12.3461,-1.159 13.1499,-1.7815 2.035,-1.576 1.8239,-7.1313 -0.4368,-11.492 -1.044,-2.0138 -6.7896,-12.157 -12.768,-22.5403 -15.2558,-26.4966 -15.9169,-28.7482 -15.0249,-51.17881 0.9187,-23.10664 -1.2502,-34.66527 -9.7713,-52.07042 -14.587,-29.7958 -41.6946,-50.22298 -77.2307,-58.19788 -13.1651,-2.95446 -42.8539,-4.14831 -56.4651,-2.27058 -57.3702,7.91445 -98.5855,47.0299 -109.8166,104.22138 -3.1109,15.8416 -3.8845,29.83461 -2.3791,43.03281 2.6939,23.6203 8.8642,39.5151 27.3956,70.5735 16.6932,27.9778 20.0386,44.0657 14.9193,71.7476 -4.4052,23.8209 -12.8167,58.6473 -14.5821,60.3749 -3.8983,3.8149 -11.2954,0.8888 -11.2954,-4.4684 0,-1.1046 2.9701,-15.0364 6.6001,-30.9596 5.311,-23.2968 6.7099,-31.5918 7.1622,-42.4702 0.5187,-12.4816 0.314,-14.2647 -2.6685,-23.2369 -1.8621,-5.6018 -6.8835,-15.8682 -11.8553,-24.2384 -23.9199,-40.2708 -29.631,-57.8477 -29.626,-91.1792 0,-26.45998 4.765,-47.67741 15.6617,-69.7938 19.6106,-39.80207 52.5451,-65.47737 96.2071,-75.00167 14.302,-3.1198 43.0706,-4.2692 58.0455,-2.3191 56.037,7.29742 96.9857,40.3779 110.4147,89.19843 2.7725,10.07959 3.0346,12.97894 3.1153,34.46083 l 0.088,23.45531 4.8061,9.1532 c 2.6431,5.0344 7.8519,14.3021 11.5749,20.5949 14.3993,24.3391 16.0938,30.8049 10.5146,40.1213 -4.1235,6.8857 -10.4297,9.6498 -22.0158,9.6498 h -8.9845 v 9.571 c 0,12.2116 -1.6653,14.5983 -12.4631,17.8619 -4.2127,1.2733 -8.6255,2.3152 -9.8059,2.3152 -4.7915,0 -3.0164,2.3282 4.9872,6.5408 5.5757,2.9348 9.2081,5.7133 10.6689,8.1611 2.1863,3.6633 2.1829,3.8037 -0.2629,10.8895 -1.8275,5.2943 -2.4796,10.0104 -2.4844,17.9674 -0.011,13.4253 -1.3584,18.3091 -6.6463,24.0369 -6.7121,7.2702 -12.528,8.3664 -39.4584,7.4383 -26.9216,-0.928 -28.528,-0.4614 -33.7784,9.8104 -2.7751,5.4293 -3.4698,8.6486 -4.321,20.0228 -0.5578,7.4543 -1.0428,13.6454 -1.0777,13.7578 -0.4735,1.5248 -4.3616,3.8002 -6.4941,3.8002 -1.5157,0 -3.5827,-0.8091 -4.5933,-1.798 z m 217.3193,-86.7825 c -2.1181,-1.5158 -2.2727,-3.2144 -2.3156,-25.4575 -0.053,-27.6951 -0.7513,-31.1311 -10.0113,-49.2915 -4.3774,-8.5851 -5.7848,-12.4901 -5.2511,-14.5707 0.7471,-2.9131 4.453,-4.5823 8.486,-3.8223 4.8426,0.9126 15.0479,21.4235 18.6734,37.5302 4.2351,18.8149 3.0445,51.1234 -2.0356,55.2338 -2.9993,2.4269 -4.5728,2.5057 -7.5458,0.378 z m -41.79,-1.5567 c -2.5577,-2.7658 -2.5027,-4.0834 0.4883,-11.6931 5.0694,-12.8975 2.9953,-32.0528 -5.1236,-47.3186 -3.3443,-6.2883 -3.4829,-6.9997 -1.9036,-9.7661 1.9279,-3.3771 7.1566,-4.5699 9.9801,-2.2768 3.0047,2.4402 8.6434,14.5276 11.021,23.6253 3.9628,15.1625 2.4265,35.6325 -3.4116,45.456 -2.5272,4.2526 -8.0334,5.2358 -11.0506,1.9733 z m -35.8932,-12.8372 c -2.7368,-2.6782 -2.8974,-5.1941 -0.5846,-9.1534 2.4043,-4.1156 2.1278,-10.7388 -0.7186,-17.2137 -2.7844,-6.3339 -2.4772,-8.1247 1.8729,-10.9139 6.0728,-3.8937 10.8583,1.2993 13.7307,14.9002 3.2081,15.1911 -6.3543,30.1567 -14.3004,22.3808 z M 3045.3434,599.01194 c -33.9395,-7.53296 -60.5312,-34.0062 -67.5475,-67.24656 -6.0074,-28.46062 3.5,-56.89298 25.9862,-77.71308 10.9047,-10.09664 18.9425,-14.93837 32.6459,-19.66474 9.4586,-3.26233 11.4534,-3.53703 26.0279,-3.58443 13.3906,-0.0436 17.1096,0.35556 24.5237,2.63186 37.1034,11.3914 61.3191,41.0206 62.9154,76.98049 0.643,14.48257 -0.974,24.7588 -5.7237,36.37953 -9.5912,23.46539 -29.9907,42.28793 -54.2391,50.04655 -11.5369,3.69139 -33.0237,4.73728 -44.5888,2.17038 z m 33.915,-13.79199 c 23.7735,-4.92888 44.9733,-23.74663 53.5059,-47.4936 2.2209,-6.18067 2.6802,-9.85316 2.7195,-21.73905 0.039,-12.11241 -0.3851,-15.59399 -2.7773,-22.74099 -11.7043,-34.96861 -50.4681,-56.13541 -86.4823,-47.22324 -13.7097,3.39266 -23.5091,9.07097 -34.6545,20.08099 -6.9165,6.83245 -10.5036,11.51895 -13.6599,17.84676 -4.6692,9.36076 -7.9445,22.70879 -7.9445,32.3773 0,8.64101 3.8367,22.33935 8.9738,32.03947 5.9886,11.30797 20.3251,25.38254 31.1067,30.53828 15.5847,7.4525 32.9656,9.68253 49.2126,6.31408 z m -52.3969,-26.00914 c -3.8378,-5.36191 -2.8908,-6.53147 13.9641,-17.24548 5.1445,-3.27014 9.8242,-6.28163 10.3994,-6.6922 0.5752,-0.41057 -1.3499,-4.27425 -4.278,-8.58595 -2.9281,-4.31171 -5.9646,-9.21742 -6.7479,-10.90155 -2.8555,-6.1399 1.0649,-11.24127 7.4363,-9.6764 1.5185,0.37295 4.8808,4.11462 8.3182,9.25659 3.1732,4.74683 6.1852,8.6306 6.6933,8.6306 2.6169,0 14.3512,-17.49649 16.6898,-24.88548 l 0.8148,-2.57437 h -29.7122 c -27.2999,0 -29.8694,-0.16988 -31.6473,-2.09237 -2.4386,-2.63694 -2.4804,-6.36365 -0.098,-8.69542 1.5097,-1.47727 5.0168,-1.79796 19.6632,-1.79796 h 17.8257 l 1.0903,-5.97944 c 0.8526,-4.676 1.7618,-6.3447 4.1708,-7.65504 2.754,-1.49796 3.4047,-1.46776 6.1383,0.28504 2.6196,1.67963 3.0578,2.7766 3.0578,7.65501 v 5.69443 h 17.9414 c 15.8965,0 18.1619,0.23848 19.8765,2.09237 5.0099,5.41737 0.7438,10.49338 -8.8193,10.49338 h -6.4779 l -0.6569,3.96174 c -0.9916,5.97882 -7.2984,18.10871 -13.7584,26.46064 l -5.7617,7.44918 3.2126,2.78166 c 1.767,1.52992 8.0794,5.17024 14.0277,8.08959 6.6582,3.26772 10.8685,6.02466 10.9537,7.17261 0.421,5.66751 -1.9619,8.55267 -6.9495,8.41389 -4.5243,-0.12588 -18.0287,-6.84072 -25.7149,-12.78617 l -6.1105,-4.72658 -6.7786,5.1043 c -8.4601,6.37043 -21.2091,13.29629 -24.4756,13.29629 -1.357,0 -3.2864,-1.14432 -4.2875,-2.54291 z m 641.2412,20.64227 c -3.053,-0.85423 -11.1409,-8.00294 -31.8515,-28.1531 -30.5158,-29.68975 -32.2378,-32.05308 -30.8448,-42.32929 0.7002,-5.1648 0.5052,-5.73226 -3.1671,-9.21532 l -3.9133,-3.71159 -8.3447,5.03466 c -24.915,15.03214 -57.2621,16.21754 -83.1325,3.04652 -28.0661,-14.28883 -45.0285,-40.3534 -46.524,-71.48928 -0.7765,-16.16536 2.006,-28.40115 9.8295,-43.22425 6.6267,-12.55581 19.0277,-25.39206 31.0894,-32.18063 l 7.9368,-4.46693 -0.581,-4.68634 c -0.3195,-2.57748 -0.8936,-8.03302 -1.2757,-12.12339 -0.5922,-6.3393 -6.0571,-33.14138 -6.945,-34.06155 -0.164,-0.16987 -4.5987,0.69634 -9.855,1.92488 -9.0667,2.11917 -29.9304,4.97763 -47.2002,6.46676 l -7.8922,0.68053 v 30.22916 30.22919 h 11.6652 c 11.1434,0 11.7505,0.12753 13.5746,2.85206 2.4697,3.68823 1.4027,7.812 -2.4672,9.53754 -1.6534,0.73718 -7.4535,1.34033 -12.8893,1.34033 h -9.8833 v 29.49236 29.49236 l 4.6924,-0.43791 c 6.169,-0.5757 10.5073,2.11613 10.5073,6.51937 0,4.65812 -3.2725,7.0159 -9.738,7.0159 h -5.4617 v 41.18978 c 0,33.66874 0.2862,41.18977 1.5671,41.18977 0.862,0 4.8392,-1.60006 8.8383,-3.55569 8.4195,-4.11714 18.6844,-13.02164 25.8849,-22.45444 6.4713,-8.47747 8.936,-10.603 12.2949,-10.603 2.9171,0 6.3674,3.82076 6.3674,7.05116 0,2.14059 -9.4909,14.94133 -16.2397,21.90284 l -4.2214,4.35454 10.5228,-3.62788 c 5.7876,-1.99534 15.0646,-5.62821 20.6155,-8.07307 11.4776,-5.05516 14.0907,-5.37937 17.3836,-2.15686 2.6765,2.61915 2.9895,5.58645 0.8769,8.31607 -1.7055,2.20381 -21.8546,10.7636 -35.4285,15.0508 -52.4978,16.58102 -112.6071,8.03233 -158.9514,-22.60591 -21.1902,-14.00886 -46.0715,-41.95116 -58.0736,-65.21804 -21.1891,-41.07631 -25.1553,-89.98641 -10.8662,-133.99585 4.2872,-13.20452 15.4694,-34.99793 24.0999,-46.96945 9.9072,-13.74257 32.7777,-36.00494 46.0091,-44.78593 19.6668,-13.05174 42.665,-22.62941 66.06,-27.51085 7.8959,-1.6475 15.104,-2.06414 35.076,-2.02741 23.3352,0.0429 26.1375,0.27582 39.0764,3.24782 37.5945,8.63528 65.9695,23.33954 89.5991,46.43156 20.3062,19.84397 36.3269,44.83079 44.2103,68.95334 4.7139,14.42352 5.7856,22.71516 3.207,24.80942 -4.4336,3.60077 -12.4044,-0.008 -12.4044,-5.61582 0,-4.12656 -6.1395,-22.5882 -10.631,-31.9675 -4.4625,-9.31873 -18.5455,-31.23213 -21.0423,-32.74218 -0.6682,-0.40415 -4.0051,1.07803 -7.4152,3.29374 -7.5579,4.9107 -22.9624,12.56638 -31.7866,15.7972 -5.5828,2.04406 -6.4316,2.73727 -5.9232,4.83707 4.059,16.76318 6.7639,31.01027 7.3824,38.88538 l 0.7566,9.63228 4.2227,-1.24161 c 2.3225,-0.68288 10.5363,-1.24284 18.2531,-1.24435 16.9429,-0.003 24.8341,1.80051 40.3375,9.22056 9.2595,4.43168 12.7786,6.95368 21.1516,15.15892 11.1298,10.90682 17.1466,20.31353 21.9083,34.25156 2.6397,7.72666 2.9996,10.68053 3.0204,24.79011 0.021,14.61278 -0.2625,16.82138 -3.2379,25.17152 -3.714,10.423 -7.9982,18.09089 -14.6679,26.25236 l -4.6232,5.65748 3.1317,3.69956 c 1.921,2.26941 3.8096,3.45249 4.8854,3.06042 0.9646,-0.35155 4.484,-0.89053 7.8208,-1.19778 9.9983,-0.92057 13.2863,1.43115 43.1621,30.87223 24.7392,24.37921 27.1295,27.08318 28.3836,32.10883 1.733,6.94467 0.2034,13.08093 -4.5938,18.42754 -6.2152,6.92715 -13.6555,8.90392 -23.3278,6.19772 z m 13.0615,-14.27214 c 4.9411,-4.37578 3.4738,-6.40636 -24.4276,-33.80445 -22.6579,-22.24939 -27.0729,-26.08663 -30.0148,-26.08663 -4.4847,0 -7.7256,2.95418 -7.7256,7.04212 0,2.72819 4.3047,7.41692 26.5994,28.97188 22.3494,21.60794 27.1451,25.72121 30.0149,25.74378 1.8786,0.0148 4.3777,-0.82522 5.5537,-1.8667 z M 3421.401,499.0798 v -40.93488 l -11.8968,0.86297 c -12.8123,0.92936 -28.3674,3.31803 -41.0263,6.30004 -9.1145,2.14708 -8.9382,0.47578 -1.8451,17.49873 6.9944,16.78603 14.3025,27.85369 26.1228,39.56136 7.5533,7.48135 12.6376,11.4418 18.0172,14.03458 4.1217,1.98664 8.1993,3.61207 9.0613,3.61207 1.2806,0 1.5669,-7.4792 1.5669,-40.93487 z m -41.8743,30.07979 c -11.178,-11.96854 -22.0849,-30.71401 -29.4322,-50.58415 l -2.6223,-7.09161 -7.4841,2.75671 c -7.7795,2.86542 -26.4022,11.95163 -30.3285,14.7975 -2.1581,1.56431 -2.0027,1.89002 3.5902,7.52437 14.3203,14.42622 37.4134,28.10849 59.6293,35.32922 5.7875,1.8811 10.9703,3.44858 11.5171,3.48328 0.5468,0.0346 -1.6444,-2.76218 -4.8695,-6.21532 z m 189.1675,-32.99321 c 21.1027,-7.27502 38.8296,-24.94433 45.7417,-45.59349 2.3631,-7.05921 2.7921,-10.55336 2.7155,-22.11385 -0.079,-11.79088 -0.5115,-14.81926 -3.0667,-21.44334 -4.4088,-11.42897 -9.9518,-19.68931 -18.5585,-27.65659 -13.1396,-12.16324 -27.9883,-18.59912 -45.6113,-19.76941 -40.7762,-2.70778 -75.8025,29.39302 -75.8825,69.54445 -0.021,10.67065 3.307,23.9377 8.3881,33.43682 5.6677,10.59598 20.3476,24.53719 31.3475,29.77033 13.2327,6.29531 19.7148,7.67704 33.9068,7.22771 9.5425,-0.30212 14.2239,-1.05997 21.0194,-3.40263 z m -256.6136,-23.91286 c 7.5853,-4.18616 26.3499,-12.33007 28.4101,-12.33007 2.6517,0 2.6078,-2.65287 -0.2514,-15.14811 -2.8707,-12.54578 -5.6963,-32.39128 -7.1698,-50.35507 l -0.7274,-8.86723 h -35.654 -35.6538 l 0.7829,7.72307 c 2.8564,28.17693 13.4164,56.40348 29.3403,78.42585 l 6.4485,8.91809 3.7297,-2.24748 c 2.0514,-1.23612 6.8865,-3.98969 10.7449,-6.11905 z m 56.1217,-20.84749 c 11.9803,-2.93105 27.0437,-5.14617 40.3899,-5.9394 l 12.8088,-0.76129 v -29.57615 -29.57615 h -37.4145 -37.4144 v 3.23376 c 0,11.13734 4.3072,42.22824 7.7151,55.69048 2.4706,9.76015 2.5706,9.95122 4.8481,9.26411 1.1285,-0.34046 5.2086,-1.39138 9.067,-2.33536 z m -35.1604,-93.02681 c 1.0812,-17.76983 3.7095,-37.42979 6.6493,-49.73837 1.3107,-5.48832 2.0971,-10.43197 1.7472,-10.98585 -0.3498,-0.55387 -3.1523,-1.93151 -6.2278,-3.06142 -7.9521,-2.9215 -20.6572,-9.24693 -29.2916,-14.58323 -8.475,-5.23778 -6.7722,-6.00964 -15.9711,7.23942 -15.6074,22.47904 -25.2909,48.87059 -28.1977,76.85026 l -0.8022,7.72308 h 35.6379 35.6379 z m 88.3591,-16.72878 v -30.17266 l -10.8151,-0.79499 c -14.2907,-1.05046 -31.9141,-3.61745 -43.9374,-6.39985 -5.3559,-1.23948 -10.1332,-2.2536 -10.6159,-2.2536 -2.3014,0 -7.8848,34.10357 -9.0158,55.06901 l -0.7944,14.72476 h 37.5893 37.5893 z m 0,-84.95846 v -40.7607 l -3.6596,0.71625 c -18.2806,3.57781 -43.2548,32.57126 -55.5194,64.45462 l -2.733,7.10474 4.3567,1.20252 c 14.0356,3.87409 37.7114,7.42577 52.5862,7.88865 l 4.9691,0.15464 z m 45.0143,37.79714 c 6.4307,-0.88641 15.5594,-2.44747 20.2862,-3.46902 8.4161,-1.81888 8.581,-1.92234 7.9537,-4.99132 -1.0882,-5.32441 -9.7084,-23.89406 -15.6095,-33.62609 -7.4915,-12.3549 -24.2282,-29.01224 -33.3113,-33.15332 -11.2277,-5.11885 -10.303,-8.49475 -10.303,37.6124 v 40.64447 l 9.6459,-0.70273 c 5.3053,-0.3865 14.9074,-1.42797 21.338,-2.31439 z m 60.422,-16.77981 c 4.7814,-2.16191 11.8038,-5.8776 15.6048,-8.2571 l 6.9113,-4.32637 -7.7608,-7.19518 c -9.5165,-8.82286 -21.5691,-16.88217 -35.4422,-23.69972 -9.6076,-4.72131 -29.5135,-12.29283 -32.3188,-12.29283 -0.6416,0 1.1607,2.70308 4.0048,6.00685 10.7445,12.4805 20.9591,29.99664 28.298,48.5262 l 3.2456,8.19456 4.3817,-1.51285 c 2.4099,-0.83206 8.2939,-3.28166 13.0756,-5.44356 z m -175.7874,-5.78794 c 2.724,-6.49078 7.4345,-15.9712 10.468,-21.06761 5.8386,-9.80951 19.7053,-27.77148 21.4396,-27.77148 0.566,0 1.029,-0.50039 1.029,-1.11199 0,-1.61718 -18.7542,5.11542 -30.966,11.11649 -13.9799,6.87001 -25.8377,14.82259 -35.7628,23.98487 -7.4798,6.90506 -8.0081,7.69179 -6.3601,9.47378 2.8831,3.11756 29.9719,16.51824 34.5602,17.09672 0.3516,0.0444 2.868,-5.23001 5.5921,-11.72078 z m -589.8677,299.55796 c -7.319,-3.02373 -7.9383,-5.32523 -8.358,-31.06059 l -0.3778,-23.15975 -6.6375,-1.33744 c -16.1895,-3.26217 -33.0784,-11.87218 -45.3842,-23.13704 -12.7508,-11.67232 -21.2491,-25.77356 -26.3545,-43.73058 -2.4958,-8.77845 -2.6046,-11.12116 -2.6575,-57.20801 -0.048,-41.36392 0.2245,-49.28073 1.9522,-56.86005 8.7593,-38.42734 33.8384,-64.32141 70.9547,-73.26087 9.8252,-2.36637 12.3208,-2.4229 110.852,-2.51128 92.452,-0.0829 100.9614,0.067 102.7437,1.80972 2.4938,2.4387 2.4949,7.48937 0,9.92968 -1.7706,1.73316 -11.0046,1.9504 -105.0821,2.47221 l -103.141,0.57207 -9.6045,3.18339 c -19.7871,6.55838 -36.3612,20.86324 -45.3611,39.15055 -8.8367,17.95542 -9.3408,21.9689 -9.3408,74.37041 0,48.95433 0.3631,52.91206 6.0829,66.29659 6.8828,16.10558 20.8283,30.52251 36.9607,38.21016 10.0425,4.78554 22.106,8.19304 29.0059,8.19304 8.5062,0 8.5562,0.15918 9.21,29.29204 l 0.5846,26.04804 18.7073,-16.98711 c 10.2889,-9.3429 23.4564,-21.49204 29.2607,-26.9981 7.8349,-7.432 11.5999,-10.19738 14.6151,-10.73451 2.2338,-0.39793 31.5991,-0.5716 65.2563,-0.3859 l 61.1946,0.33762 2.2345,2.70111 c 2.806,3.39196 2.8059,4.93612 -7e-4,8.3277 l -2.2352,2.70111 -61.9191,0.0213 -61.9192,0.0213 -26.7511,24.43223 c -14.7132,13.43774 -28.3296,25.58731 -30.2588,26.99905 -4.6139,3.37646 -9.6587,4.19229 -14.2345,2.30195 z m -30.0376,-137.95461 -3.0806,-2.37136 v -46.25545 c 0,-44.7299 0.077,-46.33092 2.3383,-48.54377 2.9183,-2.85561 7.2177,-2.94194 9.7572,-0.19595 1.5961,1.726 1.9349,4.75449 1.9349,17.29585 v 15.20348 l 2.6306,-0.80086 c 6.4724,-1.97029 15.0479,-2.01273 20.1665,-0.0998 6.3197,2.36181 15.4229,11.81894 16.3846,17.02155 0.3696,1.99927 0.5177,13.65578 0.3293,25.90336 l -0.3428,22.26833 -3.1615,1.73554 c -2.921,1.60335 -3.4107,1.55386 -6.4306,-0.64992 l -3.2691,-2.38549 -0.5846,-22.57321 -0.5845,-22.57322 -3.8183,-3.3358 c -5.2808,-4.61345 -11.6362,-4.61329 -16.9166,4.3e-4 l -3.8184,3.33624 -0.3274,22.69341 c -0.3083,21.37469 -0.4687,22.80976 -2.7601,24.6957 -3.1482,2.59094 -4.6889,2.52362 -8.4469,-0.36909 z m 84.7699,0.87477 c -5.7198,-2.12726 -12.6761,-8.24852 -15.6173,-13.74239 -2.0773,-3.88033 -2.6504,-7.23013 -3.0345,-17.7365 -0.5653,-15.46836 0.7784,-21.13959 6.5802,-27.77252 5.3821,-6.15306 11.8054,-8.98861 20.4346,-9.02064 8.132,-0.0302 14.0389,2.60235 19.5022,8.69149 5.3842,6.00093 6.9799,10.44773 7.1808,20.01071 0.2554,12.1591 -0.2951,12.46244 -22.6208,12.46244 h -17.5547 l 0.7447,3.64344 c 2.1759,10.6463 14.4418,14.10265 25.2374,7.11153 5.4609,-3.53656 9.2862,-3.23469 11.6617,0.92024 1.6321,2.85481 1.5812,3.3413 -0.6582,6.29288 -4.3571,5.74303 -12.3449,9.69668 -20.5542,10.17354 -4.2511,0.24695 -9.0339,-0.19074 -11.3019,-1.03422 z m 20.4498,-44.55586 c -1.0498,-5.36299 -6.7069,-10.01139 -12.1839,-10.01139 -2.4191,0 -5.6232,0.83959 -7.1204,1.86576 -2.514,1.72321 -5.9827,7.91708 -5.9827,10.68324 0,0.74101 4.8455,1.18091 13.0074,1.18091 h 13.0073 z m 38.4345,44.44776 c -1.9292,-0.83333 -4.5599,-2.66874 -5.846,-4.07869 -2.2408,-2.45673 -2.3524,-4.42984 -2.676,-47.35293 -0.3366,-44.63797 -0.3292,-44.79617 2.1756,-46.79167 3.2991,-2.62821 6.3889,-2.53286 9.2695,0.28604 2.2515,2.20328 2.3383,3.81387 2.3383,43.33507 v 41.04675 l 3.4442,0.67405 c 6.8131,1.33345 7.6323,9.5314 1.2739,12.74902 -4.1254,2.08758 -5.4133,2.10466 -9.9795,0.13236 z m 33.6377,-0.0371 c -2.0772,-0.9137 -4.8375,-3.36374 -6.1339,-5.44453 -2.2532,-3.61645 -2.3573,-5.68719 -2.3614,-46.97526 0,-41.66951 0.078,-43.27272 2.3339,-45.48037 2.8093,-2.74898 5.5962,-2.90442 9.0935,-0.50721 l 2.5985,1.78112 v 41.69697 41.69697 h 2.9231 c 3.681,0 7.5998,3.74344 7.5998,7.25971 0,5.78784 -8.9248,9.10823 -16.0535,5.9726 z m 41.7759,-0.66697 c -6.5439,-2.98852 -11.2165,-7.24842 -14.2199,-12.96398 -2.0576,-3.91573 -2.2723,-6.26886 -1.939,-21.25592 0.36,-16.18838 0.5019,-17.04054 3.6,-21.61669 1.774,-2.62017 5.4185,-6.18425 8.0992,-7.92016 4.3298,-2.80404 5.9483,-3.15622 14.5043,-3.15622 8.8317,0 10.0483,0.28733 14.6677,3.46444 2.7704,1.90544 6.6303,5.68186 8.5774,8.39203 l 3.5402,4.9276 v 16.86604 c 0,16.77552 -0.019,16.89608 -3.5385,22.47004 -7.0978,11.24105 -21.8427,16.02123 -33.2914,10.79282 z m 18.1883,-14.21844 c 3.5732,-2.29113 5.1813,-8.26047 5.1894,-19.26454 0.012,-14.16232 -3.9655,-20.27209 -13.1919,-20.27209 -10.0535,0 -12.5242,4.24677 -12.5242,21.52791 0,11.02471 0.2931,12.85277 2.5001,15.59832 1.3747,1.71052 3.6109,3.57334 4.969,4.13962 3.2114,1.33905 9.5898,0.49437 13.0576,-1.72922 z m 68.9836,-2.03393 c -1.4774,-2.06422 -1.8201,-6.27826 -1.8201,-22.38635 0,-19.26678 0.6576,-23.51462 3.975,-25.68233 2.2967,-1.50073 6.1399,-0.92488 8.1205,1.21674 2.8213,3.05072 2.907,44.84766 0.098,47.59687 -2.7272,2.66872 -8.2116,2.27486 -10.373,-0.74493 z m 16.6652,-62.74792 c -9.5559,-1.06053 -19.5103,-3.81318 -26.722,-7.38929 l -5.4135,-2.68452 -18.4586,5.11184 c -17.2404,4.77449 -18.6417,4.99432 -21.2357,3.33113 -3.9106,-2.50749 -3.605,-6.19886 1.9926,-24.06469 4.4965,-14.35218 4.6631,-15.38278 2.9077,-18.00448 -1.0242,-1.52948 -3.3715,-6.85125 -5.2166,-11.82612 -8.7531,-23.60251 -7.5655,-45.41045 3.7017,-67.96949 3.9495,-7.90768 6.8322,-11.65383 15.4239,-20.04341 17.897,-17.47593 33.8486,-24.46102 58.108,-25.44487 17.3702,-0.70445 27.989,1.41735 43.0718,8.60642 9.4388,4.49891 12.6882,6.85048 21.6301,15.65329 17.902,17.62321 25.0193,33.18048 26.023,56.88219 0.4249,10.03428 0.072,15.51299 -1.4251,22.09635 -2.5529,11.22911 -10.4248,26.55298 -18.6268,36.26034 -17.6397,20.87701 -47.7465,32.5943 -75.7605,29.48531 z m 27.5294,-15.46113 c 25.1612,-6.32148 46.1411,-26.88799 52.7014,-51.66278 2.1275,-8.03407 2.3994,-23.82797 0.5609,-32.57407 -5.1337,-24.4216 -28.119,-47.60981 -53.6781,-54.152 -4.6883,-1.20007 -11.8548,-1.92641 -18.7072,-1.89607 -20.3677,0.0901 -38.394,7.88705 -52.5912,22.74725 -21.3862,22.38457 -25.5219,52.66161 -11.0272,80.72852 2.1939,4.24847 3.989,8.90875 3.989,10.35621 0,1.44747 -1.3042,6.98173 -2.8984,12.29835 -1.5942,5.31662 -2.9095,10.23616 -2.923,10.9323 -0.015,0.7904 4.4425,0.0386 11.8713,-2.00229 6.5426,-1.79738 12.8406,-3.26796 13.9954,-3.26796 1.1549,0 5.1812,1.53234 8.9474,3.40521 3.7663,1.87287 9.7011,4.15591 13.1885,5.07342 8.604,2.26362 27.5881,2.27084 36.5712,0.0138 z m -50.3228,-29.1581 c -6.0759,-2.24654 -5.8869,-3.217 8.3877,-43.05917 14.5513,-40.61459 15.6847,-42.68218 23.3967,-42.68218 7.3788,0 8.6856,2.36074 22.6783,40.96512 7.1405,19.69903 12.9823,36.99616 12.9823,38.43809 0,3.13934 -3.3726,6.4088 -6.6111,6.4088 -3.4857,0 -6.9213,-4.34898 -9.2645,-11.72763 l -2.0894,-6.57892 h -17.6956 -17.6956 l -2.0933,6.57892 c -3.0178,9.48349 -7.1121,13.4625 -11.9955,11.65697 z m 43.5022,-33.9681 c -0.445,-1.10126 -3.1189,-8.38254 -5.9422,-16.18064 -5.5053,-15.20627 -5.994,-16.18077 -6.885,-13.73129 -4.8008,13.1963 -11.1672,31.14293 -11.1672,31.4793 0,0.2392 5.5808,0.43491 12.4017,0.43491 11.34,0 12.3324,-0.17144 11.5927,-2.00228 z"
       id="path1210"
       inkscape:export-filename="path1210.png"
       inkscape:export-xdpi="96"
       inkscape:export-ydpi="96" /><path
       style="fill:#35c786;fill-opacity:1"
       d="m 1933.9396,1291.328 c -11.6094,-2.2757 -22.1073,-10.5954 -27.3597,-21.6828 l -3.1856,-6.7248 v -115.5 -115.5 l 2.709,-5.7812 c 5.968,-12.7365 20.1018,-23.2545 34.4712,-25.6528 4.8563,-0.81054 34.6036,-1.05584 103.3198,-0.85214 l 96.5,0.2861 4.9489,2.50004 c 2.7219,1.375 6.3219,4.2292 8,6.3426 l 3.0511,3.8427 0.265,113.1573 c 0.187,79.8068 -0.055,113.9333 -0.8226,115.7899 -0.5983,1.4479 -2.4337,3.9229 -4.0787,5.5 -2.8555,2.7377 -3.5101,2.8901 -14.4597,3.3675 l -11.4689,0.5 -0.2175,18.8392 c -0.2133,18.4691 -0.264,18.8768 -2.5784,20.75 -2.2877,1.8516 -5.1825,1.9074 -93.5,1.8012 -50.1266,-0.06 -93.1438,-0.5025 -95.5939,-0.9828 z m 181.9547,-111.3824 v -101.4748 l -91.75,-0.2752 c -90.5248,-0.2715 -91.818,-0.3032 -96.8441,-2.3699 -2.8017,-1.1521 -7.1892,-3.5362 -9.75,-5.298 l -4.6559,-3.2034 v 96.5813 96.5813 l 2.4527,4.8401 c 2.9718,5.8647 10.1965,12.445 15.8715,14.4559 3.5618,1.262 17.4461,1.4912 94.4258,1.5586 l 90.25,0.079 z m -168.8,23.2748 c -0.66,-0.66 -1.2,-2.37 -1.2,-3.8 0,-1.43 0.54,-3.14 1.2,-3.8 0.8958,-0.8958 12.01,-1.2 43.845,-1.2 40.0438,0 42.746,0.1115 44.3,1.8287 2.0785,2.2967 2.1073,4.5761 0.084,6.5999 -1.3795,1.3795 -6.7892,1.5714 -44.3,1.5714 -31.9,0 -43.0327,-0.3041 -43.9286,-1.2 z m 0.55,-38.8801 c -2.492,-1.4514 -2.3661,-7.5198 0.1843,-8.8847 1.2758,-0.6828 23.8364,-1.0352 66.2774,-1.0352 70.0367,0 68.7883,-0.1 68.7883,5.5 0,5.6037 1.2735,5.5027 -68.9725,5.4696 -41.9653,-0.02 -65.1394,-0.3868 -66.2775,-1.0497 z m -0.1786,-39.4913 c -1.865,-1.8651 -2.0542,-5.5459 -0.3714,-7.2286 1.735,-1.735 132.865,-1.735 134.6,0 1.9093,1.9093 1.3954,5.5497 -1.0225,7.2433 -1.956,1.37 -9.983,1.5567 -66.9286,1.5567 -57.4903,0 -64.8813,-0.1752 -66.2775,-1.5714 z m 197.8572,114 c 1.4095,-1.4096 1.5714,-12.9074 1.5714,-111.6 v -110.0286 l -3.4,-3.4 -3.4,-3.4 h -68.1 -68.1 v 13 13 h 51.845 c 50.8328,0 51.8809,0.04 53.6824,2.0303 1.4558,1.6086 1.6388,2.5951 0.881,4.75 l -0.9564,2.7197 -59.3639,0.258 c -43.0137,0.1869 -59.7391,-0.053 -60.726,-0.8725 -1.6834,-1.397 -1.7818,-6.0658 -0.1621,-7.6855 0.66,-0.66 2.235,-1.2 3.5,-1.2 2.282,0 2.3,-0.1014 2.3,-13 v -13 h -25.8947 c -23.0201,0 -26.6001,0.2202 -32.25,1.9835 -11.0101,3.4363 -20.2049,12.1582 -22.9051,21.7273 -1.9455,6.8947 -0.8581,16.3715 2.4216,21.1042 3.1034,4.4783 8.8098,8.6322 14.7259,10.7195 l 3.9023,1.3768 v -13.3842 c 0,-10.8342 0.2994,-13.6836 1.5714,-14.9557 3.3549,-3.3549 5.5831,-1.9077 21.4286,13.9178 l 15.5,15.4805 74.095,0.015 c 74.0464,0.015 74.0963,0.017 76,2.1201 1.8415,2.0347 1.905,4.9029 1.905,85.9999 v 83.8951 l 9.1786,10e-5 c 7.0108,0 9.5497,-0.3711 10.75,-1.5714 z m -186.4286,-170.7036 c 0,-0.1513 -3.375,-3.6275 -7.5,-7.725 l -7.5,-7.4499 v 7.7249 7.725 h 7.5 c 4.125,0 7.5,-0.1238 7.5,-0.275 z m 504.5714,220.7036 c -1.3675,-1.3675 -1.5714,-6.0235 -1.5714,-35.8776 0,-30.8533 -0.1684,-34.4442 -1.6725,-35.6786 -0.9199,-0.7548 -3.4016,-4.0399 -5.5148,-7.3003 -10.2859,-15.8692 -10.5486,-37.2555 -0.6484,-52.7945 3.9363,-6.1783 13.7337,-15.1855 19.9367,-18.3288 21.1679,-10.7266 47.4383,-4.6872 61.9729,14.247 6.5659,8.5535 9.0617,15.6316 9.6794,27.4511 0.7203,13.7839 -2.504,24.105 -10.9333,34.997 l -2.82,3.6439 v 33.9511 c 0,31.6213 -0.1255,34.0647 -1.8288,35.6061 -1.0058,0.9103 -2.8369,1.655 -4.0691,1.655 -1.2322,0 -7.7814,-3.8188 -14.5538,-8.4863 -6.7723,-4.6675 -13.0196,-8.7573 -13.8828,-9.0886 -0.9945,-0.3816 -6.4633,2.7273 -14.928,8.4863 -7.3472,4.9987 -14.3116,9.0886 -15.4766,9.0886 -1.1649,0 -2.8252,-0.7071 -3.6895,-1.5714 z m 20.4929,-21.9286 c 5.966,-4.125 11.6798,-7.5 12.6975,-7.5 1.0177,0 6.1001,2.9569 11.2942,6.5708 5.1942,3.6139 10.2315,7.0048 11.194,7.5352 1.6443,0.9062 1.75,-0.453 1.75,-22.5155 v -23.4799 l -5.3559,2.452 c -10.9999,5.0359 -23.0174,5.4706 -34.5306,1.2488 -3.0874,-1.1321 -6.041,-2.4528 -6.5635,-2.9349 -0.5225,-0.4821 -1.31,-0.8765 -1.75,-0.8765 -0.44,0 -0.8,10.575 -0.8,23.5 0,12.925 0.2738,23.5 0.6086,23.5 0.3347,0 5.4898,-3.375 11.4557,-7.5 z m 29.275,-47.3463 c 7.2705,-3.5792 14.4092,-10.7172 18.1107,-18.1086 12.0738,-24.11 -2.0882,-52.0081 -28.9129,-56.956 -18.3165,-3.3786 -37.763,8.952 -43.5216,27.5959 -4.6085,14.9206 -0.4751,29.0638 11.8684,40.6096 8.6153,8.0587 16.0128,10.8239 27.7706,10.3811 6.7843,-0.2555 9.2518,-0.8473 14.6848,-3.522 z m -182.41,42.0963 c -3.732,-1.8903 -6.3672,-4.1568 -8.4293,-7.25 l -3,-4.5 -0.2776,-116.5 c -0.31,-130.1201 -0.7606,-121.5708 6.7652,-128.3699 2.129,-1.9233 5.5902,-3.9744 7.6916,-4.558 5.2783,-1.4657 204.3223,-1.4771 209.5981,-0.012 4.9157,1.3651 10.5674,6.3898 12.8577,11.4313 1.706,3.7553 1.8224,8.4945 1.8422,75.0086 l 0.021,71 -2.8914,-6 c -1.5902,-3.3 -4.0649,-7.5499 -5.4992,-9.4443 l -2.6078,-3.4443 v -60.3553 c 0,-65.4928 0.078,-64.5325 -5.4721,-67.0614 -1.9776,-0.9011 -27.4318,-1.1947 -103.5592,-1.1947 h -100.937 l -3.2657,2.9178 -3.2658,2.9179 -0.2626,114.1075 c -0.2319,100.7936 -0.084,114.4527 1.267,117.0653 3.148,6.0876 2.1703,5.9915 60.9459,5.9915 h 53.5497 v 5.5 5.5 h -54.8207 -54.8207 z m 29.4032,-41.8652 c -1.5371,-2.346 -1.5613,-2.8866 -0.2351,-5.25 l 1.4783,-2.6348 28.8662,-0.2656 c 25.8004,-0.2374 29.0622,-0.088 30.7121,1.405 2.0669,1.8705 2.3579,4.5356 0.8108,7.4263 -0.9875,1.8451 -2.3922,1.9343 -30.4769,1.9343 h -29.4418 z m 0.8675,-37.5848 c -1.7992,-1.7992 -1.4454,-6.268 0.6462,-8.1608 1.649,-1.4923 4.8771,-1.6425 30.2122,-1.405 l 28.3658,0.2658 1.4908,2.6569 c 1.199,2.1368 1.2596,3.1645 0.3093,5.25 l -1.1815,2.5931 h -29.3214 c -21.4722,0 -29.6426,-0.3212 -30.5214,-1.2 z m 0.3567,-40.0225 c -2.0574,-2.9373 -1.9636,-4.3706 0.4433,-6.7775 1.9285,-1.9285 3.3333,-2 39.2775,-2 32.1205,0 37.5849,0.2154 39.5,1.5567 2.4485,1.715 3.0115,6.2543 1.0225,8.2433 -0.8921,0.892 -11.143,1.2 -39.9433,1.2 h -38.7433 z m 134.1567,-41.1447 c -6.384,-1.7901 -11.5662,-6.12 -15.2134,-12.7112 -2.8842,-5.2123 -3,-5.9042 -3,-17.9216 0,-10.9286 0.289,-13.127 2.2988,-17.4875 1.2644,-2.7432 3.2894,-6.0502 4.5,-7.349 2.9054,-3.117 10.2066,-6.7557 15.2383,-7.5944 8.4171,-1.4031 19.8386,3.3892 23.0975,9.6913 1.3379,2.5871 1.3281,3.1475 -0.093,5.3158 -1.9692,3.0055 -5.5766,3.148 -8.1346,0.3214 -7.0137,-7.75 -19.1539,-5.9897 -23.7792,3.4481 -2.4144,4.9265 -3.2268,15.2174 -1.6855,21.3495 3.2135,12.7846 14.7163,17.1254 24.5895,9.2793 4.4093,-3.5041 5.7804,-3.6619 8.4678,-0.9745 2.6473,2.6473 2.5234,4.2245 -0.6258,7.9671 -5.4615,6.4907 -16.2712,9.2986 -25.6607,6.6657 z m -136.5134,-0.8328 c -2.2799,-2.2799 -1.1645,-6.7298 7.8869,-31.4664 9.5757,-26.1693 11.9607,-30.3336 17.3731,-30.3336 5.2628,0 7.1169,3.3342 17.1825,30.8974 10.6594,29.1892 10.9662,31.2964 4.6457,31.9118 -3.5272,0.3434 -4.9259,-1.479 -7.3367,-9.5592 l -1.2681,-4.25 h -13.2058 -13.2059 l -1.7565,4.75 c -0.966,2.6125 -2.3875,5.7625 -3.1589,7 -1.5232,2.4437 -5.2202,2.9861 -7.1563,1.05 z m 34.5552,-24.05 c -0.2523,-0.6875 -2.4125,-6.7505 -4.8004,-13.4733 -2.3879,-6.7228 -4.4236,-12.1228 -4.5239,-12 -0.4185,0.5127 -9.4309,25.3797 -9.4309,26.0219 0,0.3858 4.3231,0.7014 9.607,0.7014 7.2636,0 9.4951,-0.3049 9.1482,-1.25 z m 30.4861,23.0069 c -2.2052,-2.3474 -2.2413,-2.8122 -2.2413,-28.8488 0,-22.6733 0.2298,-26.7912 1.6049,-28.7545 1.5711,-2.243 1.9247,-2.2846 16.75,-1.9725 14.1315,0.2976 15.371,0.48 18.5211,2.7268 7.7121,5.5004 9.1174,17.3595 2.7866,23.5164 l -3.1626,3.0757 3.8597,3.7421 3.8597,3.742 -0.3668,7.2624 c -0.4282,8.4808 -2.6267,12.4204 -8.583,15.3802 -2.9951,1.4884 -6.5453,1.9393 -17.2783,2.1947 -13.1425,0.3126 -13.5694,0.2567 -15.75,-2.0645 z m 26.7587,-9.0509 c 6.9262,-3.5034 5.6894,-12.6355 -1.9915,-14.7037 -2.2389,-0.6029 -6.8692,-0.9625 -10.2896,-0.7992 l -6.2189,0.2969 -0.2905,8.25 -0.2904,8.25 8.2904,-0.015 c 4.6682,-0.01 9.3828,-0.5673 10.7905,-1.2793 z m -2.0902,-26.5795 c 3.5512,-0.9934 6.492,-5.3892 5.7045,-8.5268 -1.0257,-4.0867 -4.2327,-5.4509 -13.6143,-5.7913 l -8.5,-0.3084 -0.2921,7.75 -0.2921,7.75 7.2921,-0.1 c 4.0106,-0.055 8.3765,-0.403 9.7019,-0.7738 z M 1895.2272,906.32309 c -4.0145,-1.16226 -8.0588,-5.9249 -8.9174,-10.50121 -0.3652,-1.9468 -0.4307,-11.27105 -0.1455,-20.72056 0.4086,-13.53758 0.979,-18.76556 2.6895,-24.65356 2.8053,-9.65629 8.6978,-20.90778 15.072,-28.77955 12.7984,-15.805 36.6052,-27.77224 59.3483,-29.83316 7.0827,-0.64181 7.5705,-0.5454 11.7547,2.32335 24.5666,16.84284 56.395,17.36292 79.9186,1.30588 6.7513,-4.60841 8.3597,-4.79814 21.399,-2.52428 33.0052,5.75563 58.1568,28.27947 66.7277,59.75629 1.4821,5.44309 2.0892,11.66178 2.4622,25.2241 0.5819,21.15401 -0.057,23.44443 -7.6039,27.25 l -4.4619,2.25 -117.5381,-0.0902 c -67.9886,-0.0522 -118.8732,-0.47672 -120.7052,-1.00711 z m 238.6743,-11.41136 c 1.7949,-2.16271 0.7395,-31.95941 -1.4165,-39.99134 -6.9965,-26.06473 -27.9366,-45.15287 -55.8615,-50.9209 -10.206,-2.10811 -12.2971,-2.00298 -16.0459,0.80668 -7.6683,5.74715 -21.3136,10.86585 -33.854,12.6995 -18.0861,2.64454 -40.0563,-2.2652 -54.4495,-12.16795 l -4.677,-3.21788 -7.809,1.19543 c -31.9045,4.88403 -55.4056,25.41844 -61.3824,53.63381 -1.5053,7.10665 -2.1666,37.48275 -0.8447,38.80464 0.3666,0.36667 53.4115,0.66667 117.8775,0.66667 103.2666,0 117.3599,-0.17948 118.463,-1.50866 z m 203.9928,7.19343 c -1.925,-0.61108 -6.05,-3.60264 -9.1667,-6.64791 -9.5752,-9.35581 -8.9041,1.46118 -8.599,-138.59664 l 0.2657,-121.94022 2.3396,-4.5 c 3.0063,-5.78227 6.6485,-9.63719 11.6604,-12.34136 3.6145,-1.95022 5.8068,-2.18981 22.75,-2.48633 l 18.75,-0.32814 v 5.57792 5.57791 h -16.8521 c -15.8301,0 -17.0526,0.13646 -20.1581,2.25 -1.8182,1.2375 -4.1366,3.375 -5.1519,4.75 -1.7708,2.39819 -1.8467,7.50349 -1.8648,125.3684 -0.018,115.83696 0.083,123.04163 1.754,125.89547 0.9751,1.66489 3.0433,3.97411 4.596,5.1316 2.822,2.10371 2.8638,2.10463 106.8199,2.36825 115.1983,0.29213 108.2727,0.66784 113.1267,-6.13701 l 2.2303,-3.12671 V 759.84255 636.76471 l -2.8819,-3.77827 c -4.4766,-5.86915 -7.2453,-6.56605 -26.086,-6.56605 h -16.5321 v -5.57646 -5.57646 l 19.25,0.32646 c 18.9238,0.32093 19.3292,0.37303 23.9263,3.07547 5.8016,3.41046 10.2968,8.75651 12.2958,14.62312 2.2677,6.65537 2.3152,244.11347 0.05,251.74005 -1.9342,6.51303 -7.6588,13.07669 -13.967,16.01412 l -5.0556,2.35416 -105,-0.0923 c -73.9917,-0.0651 -106.0335,-0.42043 -108.4999,-1.20337 z m 29.8852,-61.35818 c -8.1695,-7.9501 -9.412,-10.65695 -6.3138,-13.75516 2.8857,-2.8857 6.5233,-1.90298 11.651,3.14763 l 4.7911,4.71906 11.0755,-11.71906 c 8.8528,-9.36732 11.6208,-11.71906 13.7932,-11.71906 3.483,0 5.1178,1.67112 5.1178,5.23142 0,2.26304 -2.5404,5.48488 -12.6551,16.05 -14.7005,15.35513 -15.1087,15.71858 -17.6509,15.71858 -1.058,0 -5.472,-3.45304 -9.8088,-7.67341 z m 66.3148,-9.52659 c -0.66,-0.66 -1.2,-2.595 -1.2,-4.3 0,-1.705 0.54,-3.64 1.2,-4.3 0.899,-0.89906 12.9061,-1.2 47.8775,-1.2 50.73,0 49.1725,-0.17421 49.1725,5.5 0,5.67421 1.5575,5.5 -49.1725,5.5 -34.9714,0 -46.9785,-0.30094 -47.8775,-1.2 z m -431.202,-45.28512 c -18.4922,-3.68931 -35.5786,-15.29399 -46.0964,-31.30762 -10.0642,-15.32296 -12.2811,-26.27036 -11.6863,-57.70726 0.3935,-20.80051 0.5657,-22.43618 3.1582,-30 6.194,-18.07141 18.3589,-32.54825 34.2301,-40.73562 12.7022,-6.55259 19.4426,-8.16985 33.8964,-8.13289 10.7556,0.0275 12.9085,0.34734 20.7612,3.08433 12.3333,4.29866 18.9518,8.50532 28.8391,18.32992 6.8495,6.80597 9.4516,10.26688 12.7816,17 6.6146,13.37479 7.284,16.83274 7.84,40.50326 0.5408,23.01871 -0.2963,31.55035 -4.1953,42.76216 -11.2661,32.39568 -46.4073,52.81163 -79.5286,46.20372 z m 24.3166,-10.99352 c 22.3629,-4.73842 41.2959,-23.14379 46.8262,-45.52136 0.9494,-3.84195 1.3548,-12.43364 1.3446,-28.5 -0.014,-22.52033 -0.072,-23.16325 -2.7691,-30.82783 -9.9798,-28.36155 -37.9785,-45.24562 -66.7163,-40.23192 -24.0838,4.20175 -43.5989,22.73663 -48.4956,46.05975 -2.0151,9.59777 -2.0151,42.40223 0,52 4.7268,22.5138 24.1909,42.08525 46.7204,46.97817 8.258,1.79346 14.7719,1.80564 23.0898,0.0432 z m 340.5036,2.66046 c -8.5279,-8.52783 -9.748,-11.71676 -5.5957,-14.62512 3.3751,-2.36403 4.4411,-1.98803 10.4349,3.68059 l 5.5376,5.23728 2.529,-2.98728 c 1.391,-1.64301 6.3202,-6.92479 10.9538,-11.73729 6.5804,-6.83445 9.0265,-8.75 11.1735,-8.75 3.4743,0 5.1487,1.65684 5.1487,5.09478 0,2.11592 -3.061,5.83708 -14.25,17.32332 -8.7707,9.00365 -14.9928,14.61957 -16.1818,14.60522 -1.0625,-0.0128 -5.45,-3.5415 -9.75,-7.8415 z m 66.3818,-9.38182 c -0.66,-0.66 -1.2,-2.595 -1.2,-4.3 0,-1.705 0.54,-3.64 1.2,-4.3 1.7279,-1.7279 93.8721,-1.7279 95.6,0 0.66,0.66 1.2,2.595 1.2,4.3 0,1.705 -0.54,3.64 -1.2,4.3 -1.7279,1.7279 -93.8721,1.7279 -95.6,0 z M 1913.2302,750.5705 c -6.0236,-2.08163 -13.1938,-7.28969 -16.3388,-11.8677 -4.2874,-6.24069 -4.9076,-9.85175 -4.9434,-28.78241 -0.032,-16.79451 0.122,-18.33534 2.2976,-23.00728 2.4667,-5.29702 7.7655,-10.62707 13.0882,-13.16526 3.0661,-1.46211 3.2606,-1.90789 4.4419,-10.17827 5.0546,-35.38681 35.4266,-66.62162 74.6186,-76.73821 12.5277,-3.23377 32.1584,-4.28228 45.7512,-2.44366 36.4042,4.92421 69.9897,29.18613 82.0276,59.25618 2.8155,7.03313 5.7212,19.77194 5.7212,25.08247 0,2.97051 0.4804,3.6069 3.8796,5.13976 4.912,2.21498 10.6391,7.74859 13.4454,12.99121 2.0144,3.76312 2.175,5.46567 2.175,23.06306 0,17.84634 -0.1439,19.31827 -2.3696,24.24164 -4.7704,10.55272 -15.9386,17.33873 -29.7329,18.06631 -7.877,0.41548 -8.1972,0.34289 -11.5,-2.60718 l -3.3975,-3.03455 -0.3126,-33.83311 c -0.2794,-30.23414 -0.1327,-34.17322 1.3791,-37.03043 2.1785,-4.11741 7.5143,-6.68931 12.4927,-6.02157 l 3.7807,0.5071 -0.5103,-3.6441 c -3.9063,-27.89456 -20.6764,-49.053 -49.6514,-62.64415 -12.7226,-5.96773 -23.5206,-8.52589 -38.896,-9.21486 -29.2724,-1.31169 -54.4338,7.52871 -74.6098,26.21396 -13.3934,12.40378 -24.1724,32.92074 -24.1724,46.01024 0,2.94531 0.164,3.06996 3.5224,2.67787 4.6788,-0.54622 9.0302,1.37703 11.7535,5.1949 2.1677,3.03887 2.2322,3.91668 2.5421,34.61793 0.3546,35.1211 0.01,37.91727 -5.1225,41.04409 -4.1304,2.51845 -14.2336,2.5686 -21.3596,0.10602 z m 15.6641,-39.73801 v -30.5879 l -4.25,0.66842 c -11.3991,1.79278 -17.1242,4.8065 -19.9985,10.52731 -1.44,2.86619 -1.7487,6.22099 -1.75,19.01818 -10e-4,14.14398 0.2004,15.93319 2.2485,19.94146 1.2375,2.42184 3.4504,5.27732 4.9175,6.34552 3.0465,2.21819 10.7904,4.5079 15.5825,4.60742 l 3.25,0.0675 z m 185.7073,29.08218 c 5.9588,-1.76957 11.5625,-7.318 13.3134,-13.18211 0.707,-2.36785 1.0134,-9.56369 0.8088,-18.99279 -0.2907,-13.39289 -0.5703,-15.51263 -2.3742,-18 -2.6671,-3.67759 -11.5816,-8.00842 -18.2053,-8.84443 l -5.25,-0.66263 v 30.59384 30.59384 h 3.3185 c 1.8252,0 5.6001,-0.67757 8.3888,-1.50572 z m 253.1109,-26.31246 c -8.62,-8.61994 -9.8131,-11.82863 -5.4591,-14.68145 3.083,-2.02008 5.109,-1.21204 10.8754,4.33746 l 4.7345,4.55643 9.2655,-9.8555 c 5.096,-5.42052 9.8535,-10.68423 10.5722,-11.69713 1.4987,-2.11219 7.1216,-2.51336 8.9933,-0.64163 0.66,0.66 1.2,2.50028 1.2,4.08952 0,2.32336 -2.2788,5.27215 -11.6307,15.05 -15.0659,15.75204 -16.0805,16.66048 -18.6069,16.66048 -1.3201,0 -5.0897,-2.9637 -9.9442,-7.81818 z m 66.7532,-8.75325 c -2.1218,-2.12179 -1.9863,-6.74318 0.2573,-8.77358 1.6449,-1.48862 6.3742,-1.65499 47.0455,-1.65499 h 45.2167 l 2.5166,2.51665 c 1.8356,1.8356 2.3372,3.12103 1.8536,4.75 -1.4145,4.76422 -1.0912,4.73335 -49.5808,4.73335 -40.2462,0 -45.9261,-0.18867 -47.3089,-1.57143 z m -39.1759,-54.49131 c -4.1772,-1.23659 -8.1499,-5.39309 -9.377,-9.8107 -1.3411,-4.82792 -1.2846,-20.61719 0.091,-25.62656 1.3836,-5.03646 8.4315,-12.00113 13.5957,-13.4352 2.0868,-0.57951 7.2644,-1.05616 11.5057,-1.05922 l 7.7114,-0.006 1.0353,-3.84461 c 2.3476,-8.71852 10.5803,-16.87464 19.4472,-19.26651 12.5942,-3.39731 28.3943,5.85577 31.8108,18.62944 l 1.1402,4.26338 9.6903,0.38921 c 8.4693,0.34018 10.2006,0.72695 13.7409,3.0698 2.2278,1.47432 5.3245,4.34895 6.8815,6.38807 2.7136,3.55382 2.8445,4.2366 3.1591,16.47351 0.3804,14.79744 -0.7134,18.41867 -6.6846,22.13195 l -3.6435,2.26618 -48.5,0.17816 c -27.1616,0.0998 -49.8659,-0.2262 -51.6045,-0.7409 z m 97.1435,-11.34218 c 1.6748,-1.22461 1.9239,-2.71156 1.9412,-11.58658 0.019,-9.92702 -0.05,-10.24202 -2.786,-12.59508 -2.6368,-2.2681 -3.5458,-2.41342 -15.095,-2.41342 -14.3498,0 -15.0728,-0.40291 -15.8369,-8.82449 -1.4026,-15.45936 -18.7994,-20.50725 -27.9729,-8.11668 -1.0699,1.44509 -2.1521,5.05531 -2.4865,8.29451 -0.8376,8.11571 -1.8786,8.64666 -16.9528,8.64666 -11.9941,0 -12.2407,0.0455 -14.2775,2.63486 -1.7881,2.27313 -2.0726,4.03039 -2.0726,12.8 0,6.57289 0.4241,10.58921 1.2,11.36514 1.9008,1.90085 91.7261,1.70574 94.339,-0.20492 z m -374.539,-141.20918 c -1.375,-0.96305 -10.375,-8.08135 -20,-15.81845 l -17.5,-14.06745 -47.5,-0.5 c -52.5881,-0.55356 -51.6362,-0.43551 -58.8721,-7.30068 -5.6745,-5.38375 -7.081,-9.72805 -7.1059,-21.94932 l -0.022,-10.75 h 5.5 5.5 l 0.015,9.25 c 0.017,10.46398 0.9808,13.15651 5.8977,16.46998 l 3.3833,2.28002 48.1021,0.0302 48.1021,0.0302 19.5,15.93006 c 10.725,8.76154 19.8375,15.94796 20.25,15.96983 0.4125,0.0219 0.75,-6.1601 0.75,-13.73772 1e-4,-19.03417 -0.7618,-18.22257 17.1064,-18.22257 10.746,0 14.6959,-0.36347 17.0221,-1.56642 5.8102,-3.00457 5.8719,-3.60573 5.8678,-57.15146 0,-62.02713 1.8771,-57.47071 -23.9962,-58.10236 l -15.5,-0.37841 v -4.90068 -4.90067 l 17,0.022 c 14.3708,0.0186 17.6295,0.3079 21.0707,1.87085 4.8822,2.21743 9.7224,7.80446 11.2878,13.02947 0.7896,2.63534 1.1415,19.30516 1.1415,54.07768 0,34.77252 -0.3519,51.44234 -1.1415,54.07772 -1.6009,5.34353 -6.0437,10.34941 -11.5516,13.01572 -3.7226,1.80208 -6.9343,2.36528 -15.5012,2.71825 l -10.8057,0.44521 v 10.40367 c 0,15.03535 -2.7189,20.13527 -11.2095,21.02614 -3.0414,0.31913 -5.0184,-0.0596 -6.7905,-1.30081 z m 317.5,-16.42215 c -26.3927,-12.75458 -57.2776,-18.5064 -85.9409,-16.00515 -12.5764,1.09746 -27.9789,4.04059 -38.5591,7.36794 -5.2748,1.65886 -8.6232,0.79596 -9.8938,-2.5497 -0.4757,-1.25226 -0.9289,-52.40337 -1.0073,-113.66914 -0.1257,-98.27964 0.037,-111.66614 1.3818,-113.71861 2.5392,-3.87524 22.9114,-9.23909 43.7239,-11.51218 13.0463,-1.42489 42.3714,-0.59207 54.2954,1.54196 12.7223,2.2769 28.6276,7.08405 38.0787,11.50869 l 8.0787,3.78215 4.9213,-2.5089 c 12.6201,-6.43379 34.9883,-12.51347 51.0276,-13.86929 l 7.3937,-0.62499 v 5.50313 5.50314 l -7.25,0.67224 c -11.3347,1.05099 -28.995,5.37603 -39.5421,9.68394 -5.2934,2.16206 -9.7556,3.93102 -9.9161,3.93102 -0.1605,0 -0.2918,7.425 -0.2918,16.5 v 16.5 h -5.5 -5.5 v -16.25531 -16.25531 l -3.25,-1.16014 c -36.4197,-13.00057 -40.4284,-13.77454 -71.25,-13.75635 -24.8937,0.0147 -32.7232,0.94262 -49.75,5.89619 l -5.75,1.67284 V 355.4666 461.37089 l 2.4911,-0.9471 c 10.1491,-3.85872 42.6596,-7.56478 56.7589,-6.47031 l 8.75,0.67923 v -83.57097 c 0,-81.60072 0.046,-83.59539 1.9343,-84.60617 5.9799,-3.20038 9.0657,0.13312 9.0657,9.79356 0,5.07722 0.365,7.16749 1.25,7.15836 0.6875,-0.007 4.1026,-0.9071 7.5891,-2 8.0491,-2.52312 15.5493,-2.5067 25.6609,0.0562 4.4,1.11521 12.95,2.28051 19,2.58954 9.5911,0.48991 12.601,0.21178 23.5,-2.17155 10.1223,-2.21351 15.8811,-2.82397 30.2755,-3.20939 22.7309,-0.60864 28.1626,0.0324 31.8946,3.76441 l 2.8299,2.82986 v 51.46614 c 0,48.85548 -0.095,51.58375 -1.8774,53.78458 -1.8584,2.29507 -2.1029,2.31922 -24.25,2.39516 -18.7891,0.0644 -24.3748,0.44376 -34.8726,2.36822 -16.4638,3.01812 -31.3204,3.10106 -43.329,0.24188 -11.0792,-2.63792 -21.3582,-2.67454 -28.671,-0.10215 -3.025,1.06409 -6.2972,1.9494 -7.2716,1.96735 -1.6423,0.0303 -1.7518,1.43011 -1.5,19.177 l 0.2716,19.14436 8.5,1.72927 c 11.7666,2.39385 21.9594,5.54964 32.25,9.98488 l 8.75,3.77124 v -18.38705 -18.38705 h 5.5 5.5 v 18 c 0,9.9 0.1261,18 0.2803,18 0.1542,0 4.0917,-1.60768 8.75,-3.57262 31.5514,-13.30885 72.8817,-16.5572 107.4697,-8.44656 4.4,1.03177 8.7875,2.18132 9.75,2.55455 1.6545,0.64161 1.75,-2.54416 1.75,-58.42838 v -59.10699 l 3.25,-0.0136 c 1.7875,-0.008 4.2625,-0.285 5.5,-0.61664 l 2.25,-0.60297 v 63.18237 c 0,41.15296 -0.3567,63.84879 -1.023,65.09371 -2.106,3.93519 -4.427,4.18925 -13.3649,1.463 -38.9792,-11.88938 -84.369,-8.46901 -120.1806,9.05629 -4.9877,2.44084 -9.7127,4.3996 -10.5,4.35281 -0.7874,-0.0468 -5.0315,-1.82482 -9.4315,-3.95117 z m -38.2185,-77.06131 c 8.0354,-2.71041 19.0673,-2.70319 31.7185,0.0208 12.4759,2.68623 25.0924,2.65192 40.3889,-0.10983 9.6549,-1.74317 16.1159,-2.19948 31.8583,-2.25 l 19.7472,-0.0634 v -11.28138 c 0,-9.80534 -0.2262,-11.37541 -1.7472,-12 -0.9625,-0.39524 -8.5,-0.68287 -16.75,-0.63918 -11.3586,0.0602 -18.8314,0.72774 -30.7827,2.75 -19.7014,3.33364 -32.9016,3.49543 -47.0602,0.5768 -11.3641,-2.34258 -18.5049,-2.19257 -28.4071,0.59675 l -6.25,1.76056 v 11.36823 c -2e-4,6.25251 0.239,11.36821 0.5313,11.36821 0.2924,0 3.3299,-0.9439 6.75,-2.09756 z m 2.2185,-34.45501 c 8.2482,-1.94913 15.5697,-1.79929 27,0.55257 13.523,2.78246 25.4546,2.58815 43.8668,-0.71439 12.6318,-2.26572 18.0671,-2.72028 32.8833,-2.75 l 17.75,-0.0356 v -11.16468 l -1e-4,-11.16468 -7.7443,-0.7257 c -10.3531,-0.97016 -28.0708,0.0842 -42.7557,2.54428 -14.3894,2.41059 -31.5696,2.61232 -43.5,0.51078 -13.0916,-2.30608 -19.7663,-1.98816 -33.25,1.5837 l -3.75,0.99339 v 11.56844 c 0,10.60779 0.1453,11.51245 1.75,10.89411 0.9625,-0.37089 4.45,-1.31238 7.75,-2.09221 z m 12.9324,-35.44606 c 4.4371,7.5e-4 11.8926,0.67513 16.5676,1.49863 12.1882,2.14695 26.5896,1.89853 40.6204,-0.70068 9.5816,-1.77497 15.6999,-2.21022 31.6286,-2.25 l 19.7491,-0.0493 9e-4,-11.18873 v -11.18872 l -4.6025,-0.69018 c -8.5217,-1.27791 -35.1644,0.19875 -46.8975,2.59928 -15.4649,3.16402 -29.4895,3.16961 -45.2664,0.018 -12.9952,-2.59591 -15.3157,-2.50363 -29.4836,1.17254 l -4.75,1.23249 v 11.65831 11.65831 l 7.1824,-1.88567 c 4.1869,-1.09925 10.5469,-1.8851 15.25,-1.8843 z m -518.9324,128.09806 c -1.1,-0.48439 -3.125,-2.09015 -4.5,-3.56836 -2.4817,-2.668 -2.5022,-2.84332 -2.8042,-23.99044 l -0.3041,-21.3028 -12.1959,-0.4174 c -10.5238,-0.36018 -12.9797,-0.77818 -17.9139,-3.04897 -7.9443,-3.65614 -15.1213,-10.68421 -19.0406,-18.64543 l -3.2413,-6.58398 v -70.02102 -70.02103 l 2.6801,-5.71807 c 3.7424,-7.98472 10.7645,-15.13707 18.694,-19.04065 l 6.5841,-3.24128 h 110.5209 110.5209 l 5.8278,2.95034 c 7.549,3.82176 15.7703,12.66609 18.8374,20.26508 l 2.3348,5.78458 v 68.5 68.5 l -2.3348,5.78458 c -3.2688,8.09863 -11.5776,16.80829 -19.9837,20.94772 l -6.6358,3.2677 -62.2002,0.5 -62.2002,0.5 -22.3226,21.06161 c -30.3293,28.61592 -29.1252,27.62524 -34.0979,28.05413 -2.3236,0.20042 -5.1248,-0.0319 -6.2248,-0.51631 z m 24.2108,-27.76072 c 10.3341,-9.71371 22.0627,-20.85121 26.0636,-24.75 l 7.2744,-7.08871 63.7256,-0.5 c 63.2939,-0.49661 63.7535,-0.51492 67.8421,-2.7022 6.6346,-3.54936 10.0974,-7.01518 13.0824,-13.0937 l 2.8011,-5.7041 v -66.5 c 0,-65.37236 -0.035,-66.57631 -2.0918,-71 -3.1178,-6.7069 -6.8493,-10.57827 -13.2041,-13.69891 l -5.7041,-2.80109 h -106 -106 l -5.7243,2.81095 c -3.1483,1.54602 -7.2957,4.64684 -9.2163,6.89071 -6.7952,7.93868 -6.6458,6.0542 -6.3371,79.88963 0.3107,74.29716 -0.2162,68.96877 7.6379,77.24344 6.8305,7.1963 9.6759,8.08635 27.1398,8.48944 8.6055,0.19863 16.056,0.81658 16.75,1.38924 0.9363,0.77262 1.25,7.02378 1.25,24.90903 0,14.60227 0.3732,23.87756 0.9608,23.87756 0.5284,0 9.4159,-7.94758 19.75,-17.66129 z m -42.0558,-70.16745 c -0.9103,-1.00581 -1.655,-2.48227 -1.655,-3.28104 0,-2.99638 35.1206,-94.45522 36.9885,-96.32313 2.9397,-2.93976 11.4624,-2.60531 14.5014,0.56907 2.5041,2.61563 36.5101,91.51887 36.5101,95.44982 0,2.70385 -2.6126,4.41402 -6.7431,4.41402 -4.5396,0 -5.9469,-1.8058 -10.1314,-13 l -3.9249,-10.5 -22.8854,-0.2679 -22.8853,-0.2679 -3.8328,10.46362 c -2.108,5.75499 -4.4803,11.38804 -5.2716,12.5179 -1.8883,2.69589 -8.312,2.83167 -10.6705,0.22554 z m 60.1239,-37.42126 c -5.2341,-15.03969 -17.3415,-45.56874 -17.8493,-45.00745 -0.969,1.07111 -16.9296,43.51059 -16.9296,45.01608 0,0.94149 4.2533,1.24137 17.607,1.24137 13.6509,0 17.5092,-0.28086 17.1719,-1.25 z m 48.9656,35.52014 c -0.9595,-1.06019 -1.7445,-2.80456 -1.7445,-3.87637 0,-2.45016 2.7011,-6.39377 4.3793,-6.39377 2.0212,0 19.534,-8.75682 26.371,-13.18609 l 6.2503,-4.04921 -2.9261,-3.33267 c -3.808,-4.33701 -10.3775,-15.64883 -12.6093,-21.71147 -1.3863,-3.76584 -1.5233,-5.29753 -0.6463,-7.22241 1.2577,-2.76035 5.6848,-4.29376 8.0859,-2.80065 0.8773,0.54561 3.7265,5.22437 6.3315,10.39726 2.605,5.17288 6.0692,10.98024 7.6982,12.90524 l 2.9619,3.5 2.9698,-3.5 c 4.6174,-5.44172 9.1617,-13.38887 12.7655,-22.32453 l 3.2972,-8.17547 -32.4301,-0.5 c -28.2552,-0.43563 -32.6405,-0.71057 -34.0644,-2.13571 -1.9843,-1.98588 -2.1779,-8.77826 -0.2844,-9.97816 0.7425,-0.47053 10.4625,-0.8624 21.6,-0.87082 l 20.25,-0.0153 v -7 c 0,-7.82766 1.8746,-11 6.5,-11 4.6254,0 6.5,3.17234 6.5,11 v 7 h 20.3089 c 21.3156,0 23.3473,0.38523 23.7336,4.5 0.6741,7.17931 -1.105,8.5 -11.45,8.5 h -8.2646 l -1.6871,6.06814 c -2.4696,8.88268 -8.8988,21.47209 -15.1666,29.69889 l -5.4915,7.20786 4.2586,3.09176 c 3.797,2.75656 17.9986,10.00507 27.8809,14.2304 4.4491,1.90226 5.7796,5.67761 3.3226,9.42753 -1.4349,2.18986 -2.1907,2.45145 -5.8816,2.03544 -5.557,-0.62636 -21.591,-8.27693 -31.0476,-14.81431 l -7.5174,-5.19671 -7.7491,5.06611 c -9.9778,6.52317 -25.9268,14.19785 -30.8879,14.86326 -2.9964,0.40191 -4.2668,0.0834 -5.6167,-1.40823 z m 588.7006,-38.42749 c -6.1749,-5.6918 -19.7836,-21.44033 -28.0899,-32.50659 -22.0993,-29.44259 -26.8841,-55.24539 -14.5982,-78.72278 9.2942,-17.7603 29.9364,-30.57855 49.243,-30.57855 12.0375,0 28.0109,6.01548 37.2871,14.04208 5.8094,5.02683 12.066,14.03011 15.4923,22.29343 3.7482,9.03954 4.3294,26.02885 1.2719,37.17783 -4.3646,15.91543 -18.2307,37.1246 -40.0125,61.20193 -12.0592,13.33011 -13.346,13.77333 -20.5937,7.09265 z m 19.1924,-23.0226 c 17.7983,-20.74684 27.4534,-36.25064 30.8043,-49.46439 6.1709,-24.334 -6.1101,-47.49578 -29.3316,-55.31852 -20.8391,-7.02018 -44.7299,3.37725 -54.3077,23.63506 -11.3068,23.91459 -1.9376,48.2786 33.9053,88.16837 l 6.6482,7.3989 2.572,-3.04969 c 1.4146,-1.67733 5.7839,-6.79371 9.7095,-11.36973 z m -22.6566,-40.76964 c -13.6824,-7.23656 -17.0259,-23.62828 -7.1685,-35.14438 10.467,-12.22838 30.044,-10.15616 37.3941,3.95816 5.7668,11.07391 2.3404,23.55302 -8.2057,29.88581 -4.6728,2.80591 -6.3066,3.24396 -11.9566,3.2058 -4.3831,-0.0296 -7.7063,-0.65882 -10.0633,-1.90539 z m 17.1991,-11.7133 c 5.5729,-5.04342 5.9688,-11.90424 0.9636,-16.69949 -7.4875,-7.17349 -19.1436,-2.33289 -19.1436,7.95003 0,4.48569 2.6895,8.89943 6.3881,10.48345 3.0801,1.31916 9.4538,0.38191 11.7919,-1.73399 z"
       id="path1254" /></g></svg>
